{
  "accessors": [
    {
      "bufferView": 0,
      "componentType": 5126,
      "count": 52,
      "type": "VEC3",
      "max": [
        0.05000000074505806,
        0.10000000149011612,
        0.05000000074505806
      ],
      "min": [
        -0.05000000074505806,
        0.0,
        -0.05000000074505806
      ]
    },
    {
      "bufferView": 1,
      "componentType": 5126,
      "count": 52,
      "type": "VEC3",
      "max": [
        1.0,
        0.81923192739486694,
        1.0
      ],
      "min": [
        -1.0,
        -1.0,
        -1.0
      ]
    },
    {
      "bufferView": 2,
      "componentType": 5126,
      "count": 52,
      "type": "VEC4",
      "max": [
        1.0,
        0.57346236705780029,
        1.0,
        1.0
      ],
      "min": [
        -1.0,
        -0.57346236705780029,
        -1.0,
        -1.0
      ]
    },
    {
      "bufferView": 3,
      "componentType": 5126,
      "count": 52,
      "type": "VEC2",
      "max": [
        0.99853515625,
        0.76520180702209473
      ],
      "min": [
        0.0,
        0.0
      ]
    },
    {
      "bufferView": 4,
      "componentType": 5125,
      "count": 102,
      "type": "SCALAR",
      "max": [
        51.0
      ],
      "min": [
        0.0
      ]
    },
    {
      "bufferView": 5,
      "componentType": 5126,
      "count": 96,
      "type": "VEC3",
      "max": [
        0.0020021628588438034,
        0.0029648493509739637,
        0.0019907844252884388
      ],
      "min": [
        -0.00099783774930983782,
        -3.5150049370713532E-05,
        -0.0010092162992805243
      ]
    },
    {
      "bufferView": 6,
      "componentType": 5126,
      "count": 96,
      "type": "VEC3",
      "max": [
        1.0,
        1.0,
        1.0
      ],
      "min": [
        -1.0,
        -1.0,
        -1.0
      ]
    },
    {
      "bufferView": 7,
      "componentType": 5126,
      "count": 96,
      "type": "VEC4",
      "max": [
        1.0,
        0.0,
        0.0,
        -1.0
      ],
      "min": [
        1.0,
        0.0,
        0.0,
        -1.0
      ]
    },
    {
      "bufferView": 8,
      "componentType": 5126,
      "count": 96,
      "type": "VEC2",
      "max": [
        0.58398401737213135,
        0.5
      ],
      "min": [
        0.14648400247097015,
        0.5
      ]
    },
    {
      "bufferView": 9,
      "componentType": 5125,
      "count": 156,
      "type": "SCALAR",
      "max": [
        95.0
      ],
      "min": [
        0.0
      ]
    },
    {
      "bufferView": 10,
      "componentType": 5126,
      "count": 121,
      "type": "VEC3",
      "max": [
        5.0,
        1.1102230246251565E-16,
        5.0
      ],
      "min": [
        -5.0,
        -1.1102230246251565E-16,
        -5.0
      ]
    },
    {
      "bufferView": 11,
      "componentType": 5126,
      "count": 121,
      "type": "VEC3",
      "max": [
        0.0,
        1.0,
        0.0
      ],
      "min": [
        0.0,
        1.0,
        0.0
      ]
    },
    {
      "bufferView": 12,
      "componentType": 5126,
      "count": 121,
      "type": "VEC4",
      "max": [
        -1.0,
        0.0,
        0.0,
        -1.0
      ],
      "min": [
        -1.0,
        0.0,
        0.0,
        -1.0
      ]
    },
    {
      "bufferView": 13,
      "componentType": 5126,
      "count": 121,
      "type": "VEC2",
      "max": [
        1.0,
        1.0
      ],
      "min": [
        0.0,
        0.0
      ]
    },
    {
      "bufferView": 14,
      "componentType": 5125,
      "count": 600,
      "type": "SCALAR",
      "max": [
        120.0
      ],
      "min": [
        0.0
      ]
    }
  ],
  "asset": {
    "generator": "Plattar UnityGLTF (2020.3.19f1)",
    "version": "2.0"
  },
  "buffers": [
    {
      "uri": "Scene04f.bin",
      "byteLength": 16344
    }
  ],
  "bufferViews": [
    {
      "buffer": 0,
      "byteLength": 624
    },
    {
      "buffer": 0,
      "byteOffset": 624,
      "byteLength": 624
    },
    {
      "buffer": 0,
      "byteOffset": 1248,
      "byteLength": 832
    },
    {
      "buffer": 0,
      "byteOffset": 2080,
      "byteLength": 416
    },
    {
      "buffer": 0,
      "byteOffset": 2496,
      "byteLength": 408
    },
    {
      "buffer": 0,
      "byteOffset": 2904,
      "byteLength": 1152
    },
    {
      "buffer": 0,
      "byteOffset": 4056,
      "byteLength": 1152
    },
    {
      "buffer": 0,
      "byteOffset": 5208,
      "byteLength": 1536
    },
    {
      "buffer": 0,
      "byteOffset": 6744,
      "byteLength": 768
    },
    {
      "buffer": 0,
      "byteOffset": 7512,
      "byteLength": 624
    },
    {
      "buffer": 0,
      "byteOffset": 8136,
      "byteLength": 1452
    },
    {
      "buffer": 0,
      "byteOffset": 9588,
      "byteLength": 1452
    },
    {
      "buffer": 0,
      "byteOffset": 11040,
      "byteLength": 1936
    },
    {
      "buffer": 0,
      "byteOffset": 12976,
      "byteLength": 968
    },
    {
      "buffer": 0,
      "byteOffset": 13944,
      "byteLength": 2400
    }
  ],
  "images": [
    {
      "uri": "Palette.png",
      "name": "Palette"
    }
  ],
  "materials": [
    {
      "pbrMetallicRoughness": {
        "baseColorFactor": [
          0.254716963,
          0.162201822,
          0.162201822,
          0.6117647
        ],
        "metallicFactor": 0.0,
        "roughnessFactor": 0.5
      },
      "alphaMode": "BLEND",
      "name": "HouseMaterial"
    },
    {
      "pbrMetallicRoughness": {
        "baseColorTexture": {
          "index": 0
        },
        "metallicFactor": 0.0,
        "roughnessFactor": 0.5
      },
      "name": "Palette"
    },
    {
      "pbrMetallicRoughness": {
        "baseColorFactor": [
          1.0,
          0.9240566,
          0.8915094,
          0.08235294
        ],
        "metallicFactor": 0.0,
        "roughnessFactor": 0.5
      },
      "alphaMode": "BLEND",
      "name": "New Material"
    }
  ],
  "meshes": [
    {
      "primitives": [
        {
          "attributes": {
            "POSITION": 0,
            "NORMAL": 1,
            "TANGENT": 2,
            "TEXCOORD_0": 3
          },
          "indices": 4,
          "material": 0
        }
      ],
      "name": "default"
    },
    {
      "primitives": [
        {
          "attributes": {
            "POSITION": 5,
            "NORMAL": 6,
            "TANGENT": 7,
            "TEXCOORD_0": 8
          },
          "indices": 9,
          "material": 1
        }
      ],
      "name": "Flower"
    },
    {
      "primitives": [
        {
          "attributes": {
            "POSITION": 10,
            "NORMAL": 11,
            "TANGENT": 12,
            "TEXCOORD_0": 13
          },
          "indices": 14,
          "material": 2
        }
      ],
      "name": "Plane"
    }
  ],
  "nodes": [
    {
      "children": [
        1,
        3,
        4,
        5,
        7
      ],
      "rotation": [
        0.0,
        0.0,
        0.0,
        -1.0
      ],
      "name": "Scene04f"
    },
    {
      "children": [
        2
      ],
      "rotation": [
        0.0,
        0.0,
        0.0,
        -1.0
      ],
      "translation": [
        -0.0088,
        0.0,
        -0.1365
      ],
      "name": "Building_Prefab_02"
    },
    {
      "mesh": 0,
      "rotation": [
        0.0,
        0.0,
        0.0,
        -1.0
      ],
      "name": "default"
    },
    {
      "mesh": 1,
      "rotation": [
        0.0,
        0.0,
        0.0,
        -1.0
      ],
      "scale": [
        10.0,
        10.0,
        10.0
      ],
      "translation": [
        -0.005,
        0.0,
        0.005
      ],
      "name": "Flower"
    },
    {
      "mesh": 2,
      "rotation": [
        0.0,
        0.0,
        0.0,
        -1.0
      ],
      "scale": [
        0.04,
        0.04,
        0.04
      ],
      "translation": [
        0.015,
        0.0,
        -0.072
      ],
      "name": "Plane"
    },
    {
      "children": [
        6
      ],
      "rotation": [
        0.0,
        0.0,
        0.0,
        -1.0
      ],
      "translation": [
        0.093,
        0.0,
        -0.1365
      ],
      "name": "Building_Prefab_02 (1)"
    },
    {
      "mesh": 0,
      "rotation": [
        0.0,
        0.0,
        0.0,
        -1.0
      ],
      "name": "default"
    },
    {
      "children": [
        8
      ],
      "rotation": [
        0.0,
        0.0,
        0.0,
        -1.0
      ],
      "translation": [
        -0.107,
        0.0,
        -0.1365
      ],
      "name": "Building_Prefab_02 (2)"
    },
    {
      "mesh": 0,
      "rotation": [
        0.0,
        0.0,
        0.0,
        -1.0
      ],
      "name": "default"
    }
  ],
  "samplers": [
    {
      "minFilter": 9729
    }
  ],
  "scene": 0,
  "scenes": [
    {
      "nodes": [
        0
      ],
      "name": "Scene04f"
    }
  ],
  "textures": [
    {
      "sampler": 0,
      "source": 0,
      "name": "Palette"
    }
  ]
}