{
  "accessors": [
    {
      "bufferView": 0,
      "componentType": 5126,
      "count": 52,
      "type": "VEC3",
      "max": [
        0.05000000074505806,
        0.10000000149011612,
        0.05000000074505806
      ],
      "min": [
        -0.05000000074505806,
        0.0,
        -0.05000000074505806
      ]
    },
    {
      "bufferView": 1,
      "componentType": 5126,
      "count": 52,
      "type": "VEC3",
      "max": [
        1.0,
        0.81923192739486694,
        1.0
      ],
      "min": [
        -1.0,
        -1.0,
        -1.0
      ]
    },
    {
      "bufferView": 2,
      "componentType": 5126,
      "count": 52,
      "type": "VEC4",
      "max": [
        1.0,
        0.57346236705780029,
        1.0,
        1.0
      ],
      "min": [
        -1.0,
        -0.57346236705780029,
        -1.0,
        -1.0
      ]
    },
    {
      "bufferView": 3,
      "componentType": 5126,
      "count": 52,
      "type": "VEC2",
      "max": [
        0.99853515625,
        0.76520180702209473
      ],
      "min": [
        0.0,
        0.0
      ]
    },
    {
      "bufferView": 4,
      "componentType": 5125,
      "count": 102,
      "type": "SCALAR",
      "max": [
        51.0
      ],
      "min": [
        0.0
      ]
    }
  ],
  "asset": {
    "generator": "Plattar UnityGLTF (2020.3.19f1)",
    "version": "2.0"
  },
  "buffers": [
    {
      "uri": "Building_Prefab_01.bin",
      "byteLength": 2904
    }
  ],
  "bufferViews": [
    {
      "buffer": 0,
      "byteLength": 624
    },
    {
      "buffer": 0,
      "byteOffset": 624,
      "byteLength": 624
    },
    {
      "buffer": 0,
      "byteOffset": 1248,
      "byteLength": 832
    },
    {
      "buffer": 0,
      "byteOffset": 2080,
      "byteLength": 416
    },
    {
      "buffer": 0,
      "byteOffset": 2496,
      "byteLength": 408
    }
  ],
  "materials": [
    {
      "pbrMetallicRoughness": {
        "baseColorFactor": [
          0.325490147,
          0.498247147,
          1.0,
          0.972549
        ],
        "metallicFactor": 0.0,
        "roughnessFactor": 0.5
      },
      "alphaMode": "BLEND",
      "name": "HouseMaterial"
    }
  ],
  "meshes": [
    {
      "primitives": [
        {
          "attributes": {
            "POSITION": 0,
            "NORMAL": 1,
            "TANGENT": 2,
            "TEXCOORD_0": 3
          },
          "indices": 4,
          "material": 0
        }
      ],
      "name": "default"
    }
  ],
  "nodes": [
    {
      "children": [
        1
      ],
      "rotation": [
        0.0,
        0.0,
        0.0,
        -1.0
      ],
      "translation": [
        0.05,
        0.0,
        -0.05
      ],
      "name": "Building_Prefab_01"
    },
    {
      "mesh": 0,
      "rotation": [
        0.0,
        0.0,
        0.0,
        -1.0
      ],
      "name": "default"
    }
  ],
  "scene": 0,
  "scenes": [
    {
      "nodes": [
        0
      ],
      "name": "Building_Prefab_01"
    }
  ]
}